<svg width="198" height="160" viewBox="0 0 198 160" fill="none" xmlns="http://www.w3.org/2000/svg">
<circle cx="99" cy="63" r="61.5349" stroke="black" stroke-width="2.93023"/>
<path d="M16.488 82.832C16.488 85.664 13.728 87.08 8.208 87.08C7.008 87.08 6.288 86.48 6.048 85.28C5.856 84.032 5.76 82.304 5.76 80.096C5.76 75.44 6.696 69.68 8.568 62.816C11.688 51.488 15.024 44.816 18.576 42.8C19.056 42.512 19.584 42.368 20.16 42.368C20.736 42.368 21.024 43.304 21.024 45.176C21.024 47.048 20.928 48.704 20.736 50.144C20.352 53.024 19.656 56.744 18.648 61.304C17.688 65.864 17.208 68.552 17.208 69.368L16.488 82.832ZM21.384 63.464C21.384 62.84 21.72 62.432 22.392 62.24C23.112 62.048 24 61.88 25.056 61.736C26.112 61.544 27.264 61.28 28.512 60.944C29.76 60.608 30.912 59.984 31.968 59.072C34.416 56.96 35.64 53.432 35.64 48.488C35.64 45.32 34.56 42.896 32.4 41.216C30.288 39.536 27.216 38.696 23.184 38.696C19.2 38.696 15.456 39.536 11.952 41.216C10.656 41.84 9.48 42.416 8.424 42.944C7.416 43.472 6.48 43.736 5.616 43.736C4.752 43.736 4.32 43.472 4.32 42.944C4.32 42.128 5.112 40.784 6.696 38.912C8.28 37.184 10.776 35.576 14.184 34.088C17.64 32.6 21.264 31.856 25.056 31.856C32.208 31.808 37.776 33.488 41.76 36.896C45.216 39.872 46.944 43.736 46.944 48.488C46.944 53.192 45.24 57.416 41.832 61.16C38.424 64.856 34.152 66.704 29.016 66.704C23.928 66.704 21.384 65.624 21.384 63.464ZM56.7579 73.904L57.1899 82.688C57.1899 83.84 56.5899 84.872 55.3899 85.784C54.1899 86.696 52.5579 87.152 50.4939 87.152C49.2939 87.152 48.4539 86.528 47.9739 85.28C47.5419 84.032 47.3259 82.208 47.3259 79.808C47.3259 74.768 47.5659 70.832 48.0459 68C48.5739 65.12 49.5819 62.216 51.0699 59.288C48.8619 57.176 47.7579 55.352 47.7579 53.816C47.7579 50.6 49.4859 48.992 52.9419 48.992C54.7179 48.992 56.2779 49.928 57.6219 51.8C58.5819 53.096 59.2779 54.608 59.7099 56.336C60.3819 56.576 61.2219 56.696 62.2299 56.696C63.6219 56.696 65.2299 56.24 67.0539 55.328L68.9259 54.392C69.5019 54.104 70.0059 53.96 70.4379 53.96C71.8299 53.96 73.2219 56 74.6139 60.08C74.1819 61.952 73.7019 63.752 73.1739 65.48C72.6939 67.208 72.1179 69.296 71.4459 71.744C70.7739 74.192 70.4139 75.848 70.3659 76.712C70.3659 77.528 70.6299 77.936 71.1579 77.936C71.8779 77.936 72.7659 77.48 73.8219 76.568C74.8779 75.656 75.9339 74.672 76.9899 73.616C78.0459 72.512 79.0059 71.504 79.8699 70.592C80.7819 69.68 81.4059 69.224 81.7419 69.224C82.4139 69.224 82.7499 70.04 82.7499 71.672C82.7499 74.984 81.2859 78.248 78.3579 81.464C75.4779 84.68 72.1659 86.264 68.4219 86.216C66.2139 86.216 64.5579 85.328 63.4539 83.552C62.3499 81.776 61.7739 79.616 61.7259 77.072C61.7259 72.032 62.8539 67.256 65.1099 62.744C64.0539 63.176 62.8539 63.392 61.5099 63.392C60.2139 63.392 59.2779 63.344 58.7019 63.248C58.2699 65.072 57.8379 66.92 57.4059 68.792C56.9739 70.616 56.7579 72.32 56.7579 73.904ZM95.9282 78.152C99.6722 78.152 103.296 76.664 106.8 73.688C108.096 72.584 109.152 71.576 109.968 70.664C110.784 69.704 111.408 69.224 111.84 69.224C112.512 69.224 112.848 69.896 112.848 71.24C112.848 72.584 112.488 74.096 111.768 75.776C111.048 77.408 109.848 79.016 108.168 80.6C104.04 84.488 98.3762 86.432 91.1762 86.432C85.4642 86.432 81.5762 84.368 79.5122 80.24C78.7922 78.8 78.4322 76.736 78.4322 74.048C78.4322 71.36 78.9602 68.576 80.0162 65.696C81.0722 62.768 82.4642 60.248 84.1922 58.136C85.9682 56.024 88.0082 54.392 90.3122 53.24C92.6162 52.04 95.0642 51.44 97.6562 51.44C100.296 51.44 102.312 52.088 103.704 53.384C105.144 54.68 105.864 56.36 105.864 58.424C105.864 60.488 105.336 62.192 104.28 63.536C103.272 64.832 101.952 65.936 100.32 66.848C98.6882 67.712 96.8642 68.504 94.8482 69.224C92.8802 69.896 90.9362 70.664 89.0162 71.528V73.328C89.0642 75.056 89.7842 76.28 91.1762 77C92.5682 77.72 94.1522 78.104 95.9282 78.152ZM94.7042 57.848C92.2082 57.848 90.4802 60.752 89.5202 66.56C90.5282 65.888 91.4642 65.288 92.3282 64.76C93.2402 64.232 94.0322 63.728 94.7042 63.248C96.1442 62.192 96.8882 60.992 96.9362 59.648C96.9362 58.448 96.1922 57.848 94.7042 57.848ZM112.414 82.112C111.886 80.816 111.502 79.328 111.262 77.648C111.022 75.92 110.902 73.52 110.902 70.448C110.902 67.376 111.478 63.224 112.63 57.992H109.39C108.814 57.992 108.526 57.752 108.526 57.272C108.526 56.12 108.622 55.184 108.814 54.464C109.054 53.696 109.582 52.832 110.398 51.872H112.126C112.798 51.872 113.518 51.848 114.286 51.8C116.59 44.408 118.942 40.712 121.342 40.712C123.262 40.76 124.606 41.984 125.374 44.384C125.566 45.056 125.782 45.776 126.022 46.544L123.07 51.728C126.43 51.824 128.542 51.872 129.406 51.872C130.318 51.872 130.798 51.968 130.846 52.16C130.942 52.304 130.99 52.544 130.99 52.88C130.99 53.744 130.774 54.824 130.342 56.12C129.958 57.416 129.502 58.04 128.974 57.992L121.774 57.632C120.766 63.488 120.262 68.336 120.262 72.176C120.262 76.016 120.814 77.936 121.918 77.936C122.83 77.936 124.486 77.192 126.886 75.704C129.286 74.168 131.014 72.704 132.07 71.312C133.126 69.92 133.99 69.224 134.662 69.224C135.334 69.224 135.67 70.04 135.67 71.672C135.67 73.304 135.094 74.984 133.942 76.712C132.79 78.392 131.326 79.952 129.55 81.392C127.822 82.784 125.878 83.936 123.718 84.848C121.606 85.76 119.758 86.216 118.174 86.216C116.59 86.216 115.366 85.856 114.502 85.136C113.686 84.368 112.99 83.36 112.414 82.112ZM135.266 82.112C134.738 80.816 134.354 79.328 134.114 77.648C133.874 75.92 133.754 73.52 133.754 70.448C133.754 67.376 134.33 63.224 135.482 57.992H132.242C131.666 57.992 131.378 57.752 131.378 57.272C131.378 56.12 131.474 55.184 131.666 54.464C131.906 53.696 132.434 52.832 133.25 51.872H134.978C135.65 51.872 136.37 51.848 137.138 51.8C139.442 44.408 141.794 40.712 144.194 40.712C146.114 40.76 147.458 41.984 148.226 44.384C148.418 45.056 148.634 45.776 148.874 46.544L145.922 51.728C149.282 51.824 151.394 51.872 152.258 51.872C153.17 51.872 153.65 51.968 153.698 52.16C153.794 52.304 153.842 52.544 153.842 52.88C153.842 53.744 153.626 54.824 153.194 56.12C152.81 57.416 152.354 58.04 151.826 57.992L144.626 57.632C143.618 63.488 143.114 68.336 143.114 72.176C143.114 76.016 143.666 77.936 144.77 77.936C145.682 77.936 147.338 77.192 149.738 75.704C152.138 74.168 153.866 72.704 154.922 71.312C155.978 69.92 156.842 69.224 157.514 69.224C158.186 69.224 158.522 70.04 158.522 71.672C158.522 73.304 157.946 74.984 156.794 76.712C155.642 78.392 154.178 79.952 152.402 81.392C150.674 82.784 148.73 83.936 146.57 84.848C144.458 85.76 142.61 86.216 141.026 86.216C139.442 86.216 138.218 85.856 137.354 85.136C136.538 84.368 135.842 83.36 135.266 82.112ZM174.317 80.744C171.917 84.056 168.701 85.712 164.669 85.712C161.405 85.712 158.789 85.04 156.821 83.696C154.901 82.304 153.941 80.12 153.941 77.144C153.941 75.896 154.109 74.744 154.445 73.688C154.829 72.632 155.429 71.336 156.245 69.8L158.333 52.736C159.821 51.584 161.837 51.008 164.381 51.008C166.541 51.008 167.765 52.448 168.053 55.328C168.149 56.192 168.197 57.224 168.197 58.424C168.197 59.576 168.005 60.8 167.621 62.096C165.701 68.72 164.765 73.16 164.813 75.416C164.813 77.144 165.821 78.008 167.837 78.008C169.853 78.008 171.341 77.36 172.301 76.064C173.261 74.768 174.077 73.16 174.749 71.24C175.997 65.912 177.149 61.52 178.205 58.064C179.309 54.608 180.005 52.544 180.293 51.872C180.773 50.72 181.685 50.12 183.029 50.072C184.373 50.12 185.645 51.08 186.845 52.952C188.045 54.776 188.645 56.192 188.645 57.2C188.549 60.56 186.461 69.032 182.381 82.616C185.501 80.168 188.597 77.168 191.669 73.616C192.725 72.368 193.613 71.336 194.333 70.52C195.053 69.656 195.629 69.224 196.061 69.224C196.733 69.224 197.069 69.992 197.069 71.528C197.069 74.552 195.365 78.08 191.957 82.112C188.597 86.144 184.469 89.288 179.573 91.544C178.997 93.464 178.373 95.288 177.701 97.016C177.029 98.744 176.165 100.256 175.109 101.552C172.805 104.336 169.301 105.728 164.597 105.728C161.429 105.728 158.717 104.816 156.461 102.992C154.253 101.168 153.149 98.888 153.149 96.152C153.149 94.616 153.653 93.392 154.661 92.48C155.717 91.568 157.133 90.8 158.909 90.176C160.733 89.6 162.845 89.072 165.245 88.592C167.645 88.16 170.213 87.608 172.949 86.936C173.621 84.056 174.077 81.992 174.317 80.744ZM164.525 100.184C166.781 100.184 168.821 98.216 170.645 94.28C168.917 94.616 167.381 94.856 166.037 95C164.693 95.192 163.541 95.36 162.581 95.504C160.661 95.792 159.725 96.296 159.773 97.016C159.773 97.928 160.301 98.696 161.357 99.32C162.461 99.944 163.517 100.232 164.525 100.184Z" fill="#C63131"/>
<path d="M50.6934 154V135.1H53.5554L60.4404 146.305L59.0634 146.278L66.0294 135.1H68.7294V154H65.8134V146.251C65.8134 144.631 65.8494 143.173 65.9214 141.877C66.0114 140.581 66.1554 139.294 66.3534 138.016L66.7314 139.015L60.5484 148.573H58.7664L52.7724 139.123L53.0694 138.016C53.2674 139.222 53.4024 140.464 53.4744 141.742C53.5644 143.002 53.6094 144.505 53.6094 146.251V154H50.6934ZM78.7803 154.27C77.6103 154.27 76.5393 153.946 75.5673 153.298C74.6133 152.65 73.8483 151.768 73.2723 150.652C72.6963 149.536 72.4083 148.276 72.4083 146.872C72.4083 145.45 72.6963 144.19 73.2723 143.092C73.8663 141.976 74.6583 141.103 75.6483 140.473C76.6563 139.843 77.7813 139.528 79.0233 139.528C79.7613 139.528 80.4363 139.636 81.0483 139.852C81.6603 140.068 82.1913 140.374 82.6413 140.77C83.1093 141.148 83.4873 141.589 83.7753 142.093C84.0813 142.597 84.2703 143.137 84.3423 143.713L83.7213 143.497V139.825H86.5293V154H83.7213V150.625L84.3693 150.436C84.2613 150.922 84.0363 151.399 83.6943 151.867C83.3703 152.317 82.9473 152.722 82.4253 153.082C81.9213 153.442 81.3543 153.73 80.7243 153.946C80.1123 154.162 79.4643 154.27 78.7803 154.27ZM79.5093 151.705C80.3553 151.705 81.1023 151.498 81.7503 151.084C82.3983 150.67 82.9023 150.103 83.2623 149.383C83.6403 148.645 83.8293 147.808 83.8293 146.872C83.8293 145.954 83.6403 145.135 83.2623 144.415C82.9023 143.695 82.3983 143.128 81.7503 142.714C81.1023 142.3 80.3553 142.093 79.5093 142.093C78.6813 142.093 77.9433 142.3 77.2953 142.714C76.6653 143.128 76.1613 143.695 75.7833 144.415C75.4233 145.135 75.2433 145.954 75.2433 146.872C75.2433 147.808 75.4233 148.645 75.7833 149.383C76.1613 150.103 76.6653 150.67 77.2953 151.084C77.9433 151.498 78.6813 151.705 79.5093 151.705ZM90.4123 154V139.825H93.2203V144.28L92.9503 143.2C93.1483 142.516 93.4813 141.895 93.9493 141.337C94.4353 140.779 94.9843 140.338 95.5963 140.014C96.2263 139.69 96.8743 139.528 97.5403 139.528C97.8463 139.528 98.1343 139.555 98.4043 139.609C98.6923 139.663 98.9173 139.726 99.0793 139.798L98.3503 142.822C98.1343 142.732 97.8913 142.66 97.6213 142.606C97.3693 142.534 97.1173 142.498 96.8653 142.498C96.3793 142.498 95.9113 142.597 95.4613 142.795C95.0293 142.975 94.6423 143.236 94.3003 143.578C93.9763 143.902 93.7153 144.289 93.5173 144.739C93.3193 145.171 93.2203 145.648 93.2203 146.17V154H90.4123ZM103.84 149.572L103.705 146.548L110.482 139.825H114.235L103.84 149.572ZM101.302 154V134.02H104.083V154H101.302ZM110.86 154L105.514 147.763L107.485 145.954L114.424 154H110.86ZM121.484 154.27C120.476 154.27 119.594 154.036 118.838 153.568C118.1 153.1 117.524 152.443 117.11 151.597C116.714 150.751 116.516 149.743 116.516 148.573V139.825H119.297V147.817C119.297 148.645 119.423 149.365 119.675 149.977C119.945 150.571 120.323 151.03 120.809 151.354C121.313 151.678 121.916 151.84 122.618 151.84C123.14 151.84 123.617 151.759 124.049 151.597C124.481 151.417 124.85 151.174 125.156 150.868C125.48 150.562 125.732 150.193 125.912 149.761C126.092 149.329 126.182 148.861 126.182 148.357V139.825H128.963V154H126.182V151.03L126.668 150.706C126.452 151.372 126.083 151.975 125.561 152.515C125.057 153.055 124.454 153.487 123.752 153.811C123.05 154.117 122.294 154.27 121.484 154.27ZM132.863 159.94V139.825H135.671V143.065L135.239 142.822C135.347 142.282 135.653 141.769 136.157 141.283C136.661 140.779 137.273 140.374 137.993 140.068C138.731 139.744 139.487 139.582 140.261 139.582C141.539 139.582 142.673 139.897 143.663 140.527C144.653 141.157 145.436 142.021 146.012 143.119C146.588 144.217 146.876 145.477 146.876 146.899C146.876 148.303 146.588 149.563 146.012 150.679C145.454 151.777 144.68 152.65 143.69 153.298C142.7 153.928 141.584 154.243 140.342 154.243C139.514 154.243 138.713 154.081 137.939 153.757C137.165 153.415 136.508 152.983 135.968 152.461C135.428 151.939 135.095 151.399 134.969 150.841L135.671 150.463V159.94H132.863ZM139.883 151.678C140.711 151.678 141.449 151.471 142.097 151.057C142.745 150.643 143.258 150.076 143.636 149.356C144.014 148.636 144.203 147.817 144.203 146.899C144.203 145.981 144.014 145.171 143.636 144.469C143.276 143.749 142.772 143.182 142.124 142.768C141.476 142.354 140.729 142.147 139.883 142.147C139.037 142.147 138.29 142.354 137.642 142.768C136.994 143.164 136.481 143.722 136.103 144.442C135.725 145.162 135.536 145.981 135.536 146.899C135.536 147.817 135.725 148.636 136.103 149.356C136.481 150.076 136.994 150.643 137.642 151.057C138.29 151.471 139.037 151.678 139.883 151.678Z" fill="black"/>
</svg>
